<svg xmlns="http://www.w3.org/2000/svg" width="24" height="24" fill="none" stroke-width="1.5" viewBox="0 0 24 24"><path stroke="currentColor" stroke-linecap="round" stroke-linejoin="round" d="M8 15.4V8.6C8 8.26863 8.26863 8 8.6 8H15.4C15.7314 8 16 8.26863 16 8.6V15.4C16 15.7314 15.7314 16 15.4 16H8.6C8.26863 16 8 15.7314 8 15.4Z"/><path stroke="currentColor" stroke-linecap="round" stroke-linejoin="round" d="M20 4.6V19.4C20 19.7314 19.7314 20 19.4 20H4.6C4.26863 20 4 19.7314 4 19.4V4.6C4 4.26863 4.26863 4 4.6 4H19.4C19.7314 4 20 4.26863 20 4.6Z"/><path stroke="currentColor" stroke-linecap="round" stroke-linejoin="round" d="M17 4V2"/><path stroke="currentColor" stroke-linecap="round" stroke-linejoin="round" d="M12 4V2"/><path stroke="currentColor" stroke-linecap="round" stroke-linejoin="round" d="M7 4V2"/><path stroke="currentColor" stroke-linecap="round" stroke-linejoin="round" d="M7 20V22"/><path stroke="currentColor" stroke-linecap="round" stroke-linejoin="round" d="M12 20V22"/><path stroke="currentColor" stroke-linecap="round" stroke-linejoin="round" d="M17 20V22"/><path stroke="currentColor" stroke-linecap="round" stroke-linejoin="round" d="M20 17H22"/><path stroke="currentColor" stroke-linecap="round" stroke-linejoin="round" d="M20 12H22"/><path stroke="currentColor" stroke-linecap="round" stroke-linejoin="round" d="M20 7H22"/><path stroke="currentColor" stroke-linecap="round" stroke-linejoin="round" d="M4 17H2"/><path stroke="currentColor" stroke-linecap="round" stroke-linejoin="round" d="M4 12H2"/><path stroke="currentColor" stroke-linecap="round" stroke-linejoin="round" d="M4 7H2"/></svg>