<svg xmlns="http://www.w3.org/2000/svg" xmlns:xlink="http://www.w3.org/1999/xlink" width="600" height="480" viewBox="0 0 600 480"><title>Gnuplot</title><desc>Produced by GNUPLOT 5.2 patchlevel 8</desc><g id="gnuplot_canvas"><rect width="600" height="480" x="0" y="0" fill="#fff"/><defs><circle id="gpDot" r=".5" stroke="currentColor" stroke-width=".5"/><path id="gpPt0" stroke="currentColor" stroke-width=".222" d="M-1,0 h2 M0,-1 v2"/><path id="gpPt1" stroke="currentColor" stroke-width=".222" d="M-1,-1 L1,1 M1,-1 L-1,1"/><path id="gpPt2" stroke="currentColor" stroke-width=".222" d="M-1,0 L1,0 M0,-1 L0,1 M-1,-1 L1,1 M-1,1 L1,-1"/><rect id="gpPt3" width="2" height="2" x="-1" y="-1" stroke="currentColor" stroke-width=".222"/><rect id="gpPt4" width="2" height="2" x="-1" y="-1" fill="currentColor" stroke="currentColor" stroke-width=".222"/><circle id="gpPt5" cx="0" cy="0" r="1" stroke="currentColor" stroke-width=".222"/><use id="gpPt6" fill="currentColor" stroke="none" xlink:href="#gpPt5"/><path id="gpPt7" stroke="currentColor" stroke-width=".222" d="M0,-1.33 L-1.33,0.67 L1.33,0.67 z"/><use id="gpPt8" fill="currentColor" stroke="none" xlink:href="#gpPt7"/><use id="gpPt9" stroke="currentColor" transform="rotate(180)" xlink:href="#gpPt7"/><use id="gpPt10" fill="currentColor" stroke="none" xlink:href="#gpPt9"/><use id="gpPt11" stroke="currentColor" transform="rotate(45)" xlink:href="#gpPt3"/><use id="gpPt12" fill="currentColor" stroke="none" xlink:href="#gpPt11"/><path id="gpPt13" stroke="currentColor" stroke-width=".222" d="M0,1.330 L1.265,0.411 L0.782,-1.067 L-0.782,-1.076 L-1.265,0.411 z"/><use id="gpPt14" fill="currentColor" stroke="none" xlink:href="#gpPt13"/><filter id="textbox" width="1" height="1" x="0" y="0" filterUnits="objectBoundingBox"><feFlood flood-color="#FFF" flood-opacity="1" result="bgnd"/><feComposite in="SourceGraphic" in2="bgnd" operator="atop"/></filter><filter id="greybox" width="1" height="1" x="0" y="0" filterUnits="objectBoundingBox"><feFlood flood-color="#d3d3d3" flood-opacity="1" result="grey"/><feComposite in="SourceGraphic" in2="grey" operator="atop"/></filter></defs><g fill="none" stroke="currentColor" stroke-linecap="butt" stroke-linejoin="miter" stroke-width="1.5" color="gray"><path stroke="gray" stroke-dasharray="2 4" d="M71.9,444.0 L575.0,444.0" class="gridline"/></g><g fill="none" stroke="currentColor" stroke-linecap="butt" stroke-linejoin="miter" stroke-width="3" color="#000"><path stroke="#000" d="M71.9,444.0 L80.9,444.0 M575.0,444.0 L566.0,444.0"/><g fill="#000" stroke="none" font-family="Arial" font-size="12" text-anchor="end"><text transform="translate(63.6,447.9)"><tspan font-family="Arial">0</tspan></text></g></g><g fill="none" stroke="currentColor" stroke-linecap="butt" stroke-linejoin="miter" stroke-width="1.5" color="gray"><path stroke="gray" stroke-dasharray="2 4" d="M71.9,388.0 L575.0,388.0" class="gridline"/></g><g fill="none" stroke="currentColor" stroke-linecap="butt" stroke-linejoin="miter" stroke-width="3" color="#000"><path stroke="#000" d="M71.9,388.0 L80.9,388.0 M575.0,388.0 L566.0,388.0"/><g fill="#000" stroke="none" font-family="Arial" font-size="12" text-anchor="end"><text transform="translate(63.6,391.9)"><tspan font-family="Arial">100</tspan></text></g></g><g fill="none" stroke="currentColor" stroke-linecap="butt" stroke-linejoin="miter" stroke-width="1.5" color="gray"><path stroke="gray" stroke-dasharray="2 4" d="M71.9,332.0 L575.0,332.0" class="gridline"/></g><g fill="none" stroke="currentColor" stroke-linecap="butt" stroke-linejoin="miter" stroke-width="3" color="#000"><path stroke="#000" d="M71.9,332.0 L80.9,332.0 M575.0,332.0 L566.0,332.0"/><g fill="#000" stroke="none" font-family="Arial" font-size="12" text-anchor="end"><text transform="translate(63.6,335.9)"><tspan font-family="Arial">200</tspan></text></g></g><g fill="none" stroke="currentColor" stroke-linecap="butt" stroke-linejoin="miter" stroke-width="1.5" color="gray"><path stroke="gray" stroke-dasharray="2 4" d="M71.9,276.0 L575.0,276.0" class="gridline"/></g><g fill="none" stroke="currentColor" stroke-linecap="butt" stroke-linejoin="miter" stroke-width="3" color="#000"><path stroke="#000" d="M71.9,276.0 L80.9,276.0 M575.0,276.0 L566.0,276.0"/><g fill="#000" stroke="none" font-family="Arial" font-size="12" text-anchor="end"><text transform="translate(63.6,279.9)"><tspan font-family="Arial">300</tspan></text></g></g><g fill="none" stroke="currentColor" stroke-linecap="butt" stroke-linejoin="miter" stroke-width="1.5" color="gray"><path stroke="gray" stroke-dasharray="2 4" d="M71.9,220.1 L343.5,220.1 M566.7,220.1 L575.0,220.1" class="gridline"/></g><g fill="none" stroke="currentColor" stroke-linecap="butt" stroke-linejoin="miter" stroke-width="3" color="#000"><path stroke="#000" d="M71.9,220.1 L80.9,220.1 M575.0,220.1 L566.0,220.1"/><g fill="#000" stroke="none" font-family="Arial" font-size="12" text-anchor="end"><text transform="translate(63.6,224.0)"><tspan font-family="Arial">400</tspan></text></g></g><g fill="none" stroke="currentColor" stroke-linecap="butt" stroke-linejoin="miter" stroke-width="1.5" color="gray"><path stroke="gray" stroke-dasharray="2 4" d="M71.9,164.1 L343.5,164.1 M566.7,164.1 L575.0,164.1" class="gridline"/></g><g fill="none" stroke="currentColor" stroke-linecap="butt" stroke-linejoin="miter" stroke-width="3" color="#000"><path stroke="#000" d="M71.9,164.1 L80.9,164.1 M575.0,164.1 L566.0,164.1"/><g fill="#000" stroke="none" font-family="Arial" font-size="12" text-anchor="end"><text transform="translate(63.6,168.0)"><tspan font-family="Arial">500</tspan></text></g></g><g fill="none" stroke="currentColor" stroke-linecap="butt" stroke-linejoin="miter" stroke-width="1.5" color="gray"><path stroke="gray" stroke-dasharray="2 4" d="M71.9,108.1 L575.0,108.1" class="gridline"/></g><g fill="none" stroke="currentColor" stroke-linecap="butt" stroke-linejoin="miter" stroke-width="3" color="#000"><path stroke="#000" d="M71.9,108.1 L80.9,108.1 M575.0,108.1 L566.0,108.1"/><g fill="#000" stroke="none" font-family="Arial" font-size="12" text-anchor="end"><text transform="translate(63.6,112.0)"><tspan font-family="Arial">600</tspan></text></g></g><g fill="none" stroke="currentColor" stroke-linecap="butt" stroke-linejoin="miter" stroke-width="1.5" color="gray"><path stroke="gray" stroke-dasharray="2 4" d="M71.9,444.0 L71.9,108.1" class="gridline"/></g><g fill="none" stroke="currentColor" stroke-linecap="butt" stroke-linejoin="miter" stroke-width="3" color="#000"><path stroke="#000" d="M71.9,444.0 L71.9,435.0 M71.9,108.1 L71.9,117.1"/><g fill="#000" stroke="none" font-family="Arial" font-size="12" text-anchor="middle"><text transform="translate(71.9,465.9)"><tspan font-family="Arial">0</tspan></text></g></g><g fill="none" stroke="currentColor" stroke-linecap="butt" stroke-linejoin="miter" stroke-width="1.5" color="gray"><path stroke="gray" stroke-dasharray="2 4" d="M122.2,444.0 L122.2,108.1" class="gridline"/></g><g fill="none" stroke="currentColor" stroke-linecap="butt" stroke-linejoin="miter" stroke-width="3" color="#000"><path stroke="#000" d="M122.2,444.0 L122.2,435.0 M122.2,108.1 L122.2,117.1"/><g fill="#000" stroke="none" font-family="Arial" font-size="12" text-anchor="middle"><text transform="translate(122.2,465.9)"><tspan font-family="Arial">5</tspan></text></g></g><g fill="none" stroke="currentColor" stroke-linecap="butt" stroke-linejoin="miter" stroke-width="1.5" color="gray"><path stroke="gray" stroke-dasharray="2 4" d="M172.5,444.0 L172.5,108.1" class="gridline"/></g><g fill="none" stroke="currentColor" stroke-linecap="butt" stroke-linejoin="miter" stroke-width="3" color="#000"><path stroke="#000" d="M172.5,444.0 L172.5,435.0 M172.5,108.1 L172.5,117.1"/><g fill="#000" stroke="none" font-family="Arial" font-size="12" text-anchor="middle"><text transform="translate(172.5,465.9)"><tspan font-family="Arial">10</tspan></text></g></g><g fill="none" stroke="currentColor" stroke-linecap="butt" stroke-linejoin="miter" stroke-width="1.5" color="gray"><path stroke="gray" stroke-dasharray="2 4" d="M222.8,444.0 L222.8,108.1" class="gridline"/></g><g fill="none" stroke="currentColor" stroke-linecap="butt" stroke-linejoin="miter" stroke-width="3" color="#000"><path stroke="#000" d="M222.8,444.0 L222.8,435.0 M222.8,108.1 L222.8,117.1"/><g fill="#000" stroke="none" font-family="Arial" font-size="12" text-anchor="middle"><text transform="translate(222.8,465.9)"><tspan font-family="Arial">15</tspan></text></g></g><g fill="none" stroke="currentColor" stroke-linecap="butt" stroke-linejoin="miter" stroke-width="1.5" color="gray"><path stroke="gray" stroke-dasharray="2 4" d="M273.1,444.0 L273.1,108.1" class="gridline"/></g><g fill="none" stroke="currentColor" stroke-linecap="butt" stroke-linejoin="miter" stroke-width="3" color="#000"><path stroke="#000" d="M273.1,444.0 L273.1,435.0 M273.1,108.1 L273.1,117.1"/><g fill="#000" stroke="none" font-family="Arial" font-size="12" text-anchor="middle"><text transform="translate(273.1,465.9)"><tspan font-family="Arial">20</tspan></text></g></g><g fill="none" stroke="currentColor" stroke-linecap="butt" stroke-linejoin="miter" stroke-width="1.5" color="gray"><path stroke="gray" stroke-dasharray="2 4" d="M323.5,444.0 L323.5,108.1" class="gridline"/></g><g fill="none" stroke="currentColor" stroke-linecap="butt" stroke-linejoin="miter" stroke-width="3" color="#000"><path stroke="#000" d="M323.5,444.0 L323.5,435.0 M323.5,108.1 L323.5,117.1"/><g fill="#000" stroke="none" font-family="Arial" font-size="12" text-anchor="middle"><text transform="translate(323.5,465.9)"><tspan font-family="Arial">25</tspan></text></g></g><g fill="none" stroke="currentColor" stroke-linecap="butt" stroke-linejoin="miter" stroke-width="1.5" color="gray"><path stroke="gray" stroke-dasharray="2 4" d="M373.8,444.0 L373.8,225.1 M373.8,117.1 L373.8,108.1" class="gridline"/></g><g fill="none" stroke="currentColor" stroke-linecap="butt" stroke-linejoin="miter" stroke-width="3" color="#000"><path stroke="#000" d="M373.8,444.0 L373.8,435.0 M373.8,108.1 L373.8,117.1"/><g fill="#000" stroke="none" font-family="Arial" font-size="12" text-anchor="middle"><text transform="translate(373.8,465.9)"><tspan font-family="Arial">30</tspan></text></g></g><g fill="none" stroke="currentColor" stroke-linecap="butt" stroke-linejoin="miter" stroke-width="1.5" color="gray"><path stroke="gray" stroke-dasharray="2 4" d="M424.1,444.0 L424.1,225.1 M424.1,117.1 L424.1,108.1" class="gridline"/></g><g fill="none" stroke="currentColor" stroke-linecap="butt" stroke-linejoin="miter" stroke-width="3" color="#000"><path stroke="#000" d="M424.1,444.0 L424.1,435.0 M424.1,108.1 L424.1,117.1"/><g fill="#000" stroke="none" font-family="Arial" font-size="12" text-anchor="middle"><text transform="translate(424.1,465.9)"><tspan font-family="Arial">35</tspan></text></g></g><g fill="none" stroke="currentColor" stroke-linecap="butt" stroke-linejoin="miter" stroke-width="1.5" color="gray"><path stroke="gray" stroke-dasharray="2 4" d="M474.4,444.0 L474.4,225.1 M474.4,117.1 L474.4,108.1" class="gridline"/></g><g fill="none" stroke="currentColor" stroke-linecap="butt" stroke-linejoin="miter" stroke-width="3" color="#000"><path stroke="#000" d="M474.4,444.0 L474.4,435.0 M474.4,108.1 L474.4,117.1"/><g fill="#000" stroke="none" font-family="Arial" font-size="12" text-anchor="middle"><text transform="translate(474.4,465.9)"><tspan font-family="Arial">40</tspan></text></g></g><g fill="none" stroke="currentColor" stroke-linecap="butt" stroke-linejoin="miter" stroke-width="1.5" color="gray"><path stroke="gray" stroke-dasharray="2 4" d="M524.7,444.0 L524.7,225.1 M524.7,117.1 L524.7,108.1" class="gridline"/></g><g fill="none" stroke="currentColor" stroke-linecap="butt" stroke-linejoin="miter" stroke-width="3" color="#000"><path stroke="#000" d="M524.7,444.0 L524.7,435.0 M524.7,108.1 L524.7,117.1"/><g fill="#000" stroke="none" font-family="Arial" font-size="12" text-anchor="middle"><text transform="translate(524.7,465.9)"><tspan font-family="Arial">45</tspan></text></g></g><g fill="none" stroke="currentColor" stroke-linecap="butt" stroke-linejoin="miter" stroke-width="1.5" color="gray"><path stroke="gray" stroke-dasharray="2 4" d="M575.0,444.0 L575.0,108.1" class="gridline"/></g><g fill="none" stroke="currentColor" stroke-linecap="butt" stroke-linejoin="miter" stroke-width="3" color="#000"><path stroke="#000" d="M575.0,444.0 L575.0,435.0 M575.0,108.1 L575.0,117.1"/><g fill="#000" stroke="none" font-family="Arial" font-size="12" text-anchor="middle"><text transform="translate(575.0,465.9)"><tspan font-family="Arial">50</tspan></text></g></g><g fill="none" stroke="currentColor" stroke-linecap="butt" stroke-linejoin="miter" stroke-width="3" color="#000"><path stroke="#000" d="M71.9,108.1 L71.9,444.0 L575.0,444.0 L575.0,108.1 L71.9,108.1 Z"/></g><g fill="none" stroke="currentColor" stroke-linecap="butt" stroke-linejoin="miter" stroke-width="3" color="#000"><g fill="#000" stroke="none" font-family="Arial" font-size="12" text-anchor="middle"><text transform="translate(19.0,276.1) rotate(270)"><tspan font-family="Arial">tx traffic per node [KB/s]</tspan></text></g></g><g fill="none" stroke="currentColor" stroke-linecap="butt" stroke-linejoin="miter" stroke-width="3" color="#000"><g fill="#000" stroke="none" font-family="Arial" font-size="12" text-anchor="middle"><text transform="translate(323.4,31.0)">Mobility2 Test for 50 randomly placed nodes in a 1x1km square.</text></g><g fill="#000" stroke="none" font-family="Arial" font-size="12" text-anchor="middle"><text transform="translate(323.4,49.0)">Move in random directions of 50-400m in 50m increments.</text></g><g fill="#000" stroke="none" font-family="Arial" font-size="12" text-anchor="middle"><text transform="translate(323.4,67.0)">Wait and measure ping arrival over 60s in 10s intervals each time.</text></g><g fill="#000" stroke="none" font-family="Arial" font-size="12" text-anchor="middle"><text transform="translate(323.4,85.0)">100MBit/s - 1ms latency links.</text></g></g><g id="gnuplot_plot_1"><title>v0.3.16 [%]</title><g fill="none" stroke="currentColor" stroke-linecap="butt" stroke-linejoin="miter" stroke-width="3" color="#000"><g fill="#000" stroke="none" font-family="Helvetica" font-size="18" text-anchor="end"><text transform="translate(482.1,150.0)"><tspan font-family="Helvetica">v0.3.16 [%]</tspan></text></g></g><g fill="none" stroke="currentColor" stroke-linecap="butt" stroke-linejoin="miter" stroke-width="3" color="#000"><path stroke="#C080FF" d="M494.7,144.1 L554.1,144.1 M71.9,437.7 L82.0,438.8 L92.0,387.7 L102.1,197.2 L112.1,415.1 L122.2,433.9 L132.3,434.2 L142.3,436.4 L152.4,143.5 L162.5,131.6 L172.5,434.8 L182.6,437.5 L192.6,433.7 L202.7,435.3 L212.8,433.5 L222.8,398.2 L232.9,435.1 L243.0,438.3 L253.0,318.2 L263.1,386.8 L273.1,290.1 L283.2,340.3 L293.3,438.4 L303.3,320.4 L313.4,437.2 L323.5,438.5 L333.5,403.7 L343.6,438.4 L353.6,369.4 L363.7,389.9 L373.8,437.8 L383.8,405.6 L393.9,436.3 L403.9,395.7 L414.0,433.6 L424.1,437.6 L434.1,298.5 L444.2,436.2 L454.3,436.5 L464.3,437.5 L474.4,435.3 L484.4,436.6 L494.5,422.5 L504.6,236.8 L514.6,307.7 L524.7,434.6 L534.8,435.4 L544.8,362.9"/><use color="#C080FF" transform="translate(71.9,437.7) scale(4.50)" xlink:href="#gpPt0"/><use color="#C080FF" transform="translate(82.0,438.8) scale(4.50)" xlink:href="#gpPt0"/><use color="#C080FF" transform="translate(92.0,387.7) scale(4.50)" xlink:href="#gpPt0"/><use color="#C080FF" transform="translate(102.1,197.2) scale(4.50)" xlink:href="#gpPt0"/><use color="#C080FF" transform="translate(112.1,415.1) scale(4.50)" xlink:href="#gpPt0"/><use color="#C080FF" transform="translate(122.2,433.9) scale(4.50)" xlink:href="#gpPt0"/><use color="#C080FF" transform="translate(132.3,434.2) scale(4.50)" xlink:href="#gpPt0"/><use color="#C080FF" transform="translate(142.3,436.4) scale(4.50)" xlink:href="#gpPt0"/><use color="#C080FF" transform="translate(152.4,143.5) scale(4.50)" xlink:href="#gpPt0"/><use color="#C080FF" transform="translate(162.5,131.6) scale(4.50)" xlink:href="#gpPt0"/><use color="#C080FF" transform="translate(172.5,434.8) scale(4.50)" xlink:href="#gpPt0"/><use color="#C080FF" transform="translate(182.6,437.5) scale(4.50)" xlink:href="#gpPt0"/><use color="#C080FF" transform="translate(192.6,433.7) scale(4.50)" xlink:href="#gpPt0"/><use color="#C080FF" transform="translate(202.7,435.3) scale(4.50)" xlink:href="#gpPt0"/><use color="#C080FF" transform="translate(212.8,433.5) scale(4.50)" xlink:href="#gpPt0"/><use color="#C080FF" transform="translate(222.8,398.2) scale(4.50)" xlink:href="#gpPt0"/><use color="#C080FF" transform="translate(232.9,435.1) scale(4.50)" xlink:href="#gpPt0"/><use color="#C080FF" transform="translate(243.0,438.3) scale(4.50)" xlink:href="#gpPt0"/><use color="#C080FF" transform="translate(253.0,318.2) scale(4.50)" xlink:href="#gpPt0"/><use color="#C080FF" transform="translate(263.1,386.8) scale(4.50)" xlink:href="#gpPt0"/><use color="#C080FF" transform="translate(273.1,290.1) scale(4.50)" xlink:href="#gpPt0"/><use color="#C080FF" transform="translate(283.2,340.3) scale(4.50)" xlink:href="#gpPt0"/><use color="#C080FF" transform="translate(293.3,438.4) scale(4.50)" xlink:href="#gpPt0"/><use color="#C080FF" transform="translate(303.3,320.4) scale(4.50)" xlink:href="#gpPt0"/><use color="#C080FF" transform="translate(313.4,437.2) scale(4.50)" xlink:href="#gpPt0"/><use color="#C080FF" transform="translate(323.5,438.5) scale(4.50)" xlink:href="#gpPt0"/><use color="#C080FF" transform="translate(333.5,403.7) scale(4.50)" xlink:href="#gpPt0"/><use color="#C080FF" transform="translate(343.6,438.4) scale(4.50)" xlink:href="#gpPt0"/><use color="#C080FF" transform="translate(353.6,369.4) scale(4.50)" xlink:href="#gpPt0"/><use color="#C080FF" transform="translate(363.7,389.9) scale(4.50)" xlink:href="#gpPt0"/><use color="#C080FF" transform="translate(373.8,437.8) scale(4.50)" xlink:href="#gpPt0"/><use color="#C080FF" transform="translate(383.8,405.6) scale(4.50)" xlink:href="#gpPt0"/><use color="#C080FF" transform="translate(393.9,436.3) scale(4.50)" xlink:href="#gpPt0"/><use color="#C080FF" transform="translate(403.9,395.7) scale(4.50)" xlink:href="#gpPt0"/><use color="#C080FF" transform="translate(414.0,433.6) scale(4.50)" xlink:href="#gpPt0"/><use color="#C080FF" transform="translate(424.1,437.6) scale(4.50)" xlink:href="#gpPt0"/><use color="#C080FF" transform="translate(434.1,298.5) scale(4.50)" xlink:href="#gpPt0"/><use color="#C080FF" transform="translate(444.2,436.2) scale(4.50)" xlink:href="#gpPt0"/><use color="#C080FF" transform="translate(454.3,436.5) scale(4.50)" xlink:href="#gpPt0"/><use color="#C080FF" transform="translate(464.3,437.5) scale(4.50)" xlink:href="#gpPt0"/><use color="#C080FF" transform="translate(474.4,435.3) scale(4.50)" xlink:href="#gpPt0"/><use color="#C080FF" transform="translate(484.4,436.6) scale(4.50)" xlink:href="#gpPt0"/><use color="#C080FF" transform="translate(494.5,422.5) scale(4.50)" xlink:href="#gpPt0"/><use color="#C080FF" transform="translate(504.6,236.8) scale(4.50)" xlink:href="#gpPt0"/><use color="#C080FF" transform="translate(514.6,307.7) scale(4.50)" xlink:href="#gpPt0"/><use color="#C080FF" transform="translate(524.7,434.6) scale(4.50)" xlink:href="#gpPt0"/><use color="#C080FF" transform="translate(534.8,435.4) scale(4.50)" xlink:href="#gpPt0"/><use color="#C080FF" transform="translate(544.8,362.9) scale(4.50)" xlink:href="#gpPt0"/><use color="#C080FF" transform="translate(524.4,144.1) scale(4.50)" xlink:href="#gpPt0"/></g></g><g id="gnuplot_plot_2"><title>v0.4rc3 [%]</title><g fill="none" stroke="currentColor" stroke-linecap="butt" stroke-linejoin="miter" stroke-width="3" color="#000"><g fill="#000" stroke="none" font-family="Helvetica" font-size="18" text-anchor="end"><text transform="translate(482.1,204.0)"><tspan font-family="Helvetica">v0.4rc3 [%]</tspan></text></g></g><g fill="none" stroke="currentColor" stroke-linecap="butt" stroke-linejoin="miter" stroke-width="3" color="#000"><path stroke="#006400" d="M494.7,198.1 L554.1,198.1 M71.9,440.9 L82.0,439.1 L92.0,441.5 L102.1,441.2 L112.1,441.0 L122.2,440.7 L132.3,439.9 L142.3,440.3 L152.4,441.0 L162.5,441.0 L172.5,439.8 L182.6,438.1 L192.6,439.3 L202.7,438.2 L212.8,440.8 L222.8,438.0 L232.9,441.1 L243.0,441.0 L253.0,440.6 L263.1,438.6 L273.1,440.3 L283.2,441.1 L293.3,440.8 L303.3,438.1 L313.4,440.8 L323.5,440.5 L333.5,439.9 L343.6,441.1 L353.6,440.9 L363.7,441.3 L373.8,440.8 L383.8,440.8 L393.9,440.7 L403.9,441.1 L414.0,439.3 L424.1,440.9 L434.1,438.3 L444.2,441.3 L454.3,441.4 L464.3,441.3 L474.4,439.1 L484.4,440.4 L494.5,439.4 L504.6,440.9 L514.6,441.3 L524.7,440.6 L534.8,438.5 L544.8,440.5"/><use color="#006400" transform="translate(71.9,440.9) scale(4.50)" xlink:href="#gpPt1"/><use color="#006400" transform="translate(82.0,439.1) scale(4.50)" xlink:href="#gpPt1"/><use color="#006400" transform="translate(92.0,441.5) scale(4.50)" xlink:href="#gpPt1"/><use color="#006400" transform="translate(102.1,441.2) scale(4.50)" xlink:href="#gpPt1"/><use color="#006400" transform="translate(112.1,441.0) scale(4.50)" xlink:href="#gpPt1"/><use color="#006400" transform="translate(122.2,440.7) scale(4.50)" xlink:href="#gpPt1"/><use color="#006400" transform="translate(132.3,439.9) scale(4.50)" xlink:href="#gpPt1"/><use color="#006400" transform="translate(142.3,440.3) scale(4.50)" xlink:href="#gpPt1"/><use color="#006400" transform="translate(152.4,441.0) scale(4.50)" xlink:href="#gpPt1"/><use color="#006400" transform="translate(162.5,441.0) scale(4.50)" xlink:href="#gpPt1"/><use color="#006400" transform="translate(172.5,439.8) scale(4.50)" xlink:href="#gpPt1"/><use color="#006400" transform="translate(182.6,438.1) scale(4.50)" xlink:href="#gpPt1"/><use color="#006400" transform="translate(192.6,439.3) scale(4.50)" xlink:href="#gpPt1"/><use color="#006400" transform="translate(202.7,438.2) scale(4.50)" xlink:href="#gpPt1"/><use color="#006400" transform="translate(212.8,440.8) scale(4.50)" xlink:href="#gpPt1"/><use color="#006400" transform="translate(222.8,438.0) scale(4.50)" xlink:href="#gpPt1"/><use color="#006400" transform="translate(232.9,441.1) scale(4.50)" xlink:href="#gpPt1"/><use color="#006400" transform="translate(243.0,441.0) scale(4.50)" xlink:href="#gpPt1"/><use color="#006400" transform="translate(253.0,440.6) scale(4.50)" xlink:href="#gpPt1"/><use color="#006400" transform="translate(263.1,438.6) scale(4.50)" xlink:href="#gpPt1"/><use color="#006400" transform="translate(273.1,440.3) scale(4.50)" xlink:href="#gpPt1"/><use color="#006400" transform="translate(283.2,441.1) scale(4.50)" xlink:href="#gpPt1"/><use color="#006400" transform="translate(293.3,440.8) scale(4.50)" xlink:href="#gpPt1"/><use color="#006400" transform="translate(303.3,438.1) scale(4.50)" xlink:href="#gpPt1"/><use color="#006400" transform="translate(313.4,440.8) scale(4.50)" xlink:href="#gpPt1"/><use color="#006400" transform="translate(323.5,440.5) scale(4.50)" xlink:href="#gpPt1"/><use color="#006400" transform="translate(333.5,439.9) scale(4.50)" xlink:href="#gpPt1"/><use color="#006400" transform="translate(343.6,441.1) scale(4.50)" xlink:href="#gpPt1"/><use color="#006400" transform="translate(353.6,440.9) scale(4.50)" xlink:href="#gpPt1"/><use color="#006400" transform="translate(363.7,441.3) scale(4.50)" xlink:href="#gpPt1"/><use color="#006400" transform="translate(373.8,440.8) scale(4.50)" xlink:href="#gpPt1"/><use color="#006400" transform="translate(383.8,440.8) scale(4.50)" xlink:href="#gpPt1"/><use color="#006400" transform="translate(393.9,440.7) scale(4.50)" xlink:href="#gpPt1"/><use color="#006400" transform="translate(403.9,441.1) scale(4.50)" xlink:href="#gpPt1"/><use color="#006400" transform="translate(414.0,439.3) scale(4.50)" xlink:href="#gpPt1"/><use color="#006400" transform="translate(424.1,440.9) scale(4.50)" xlink:href="#gpPt1"/><use color="#006400" transform="translate(434.1,438.3) scale(4.50)" xlink:href="#gpPt1"/><use color="#006400" transform="translate(444.2,441.3) scale(4.50)" xlink:href="#gpPt1"/><use color="#006400" transform="translate(454.3,441.4) scale(4.50)" xlink:href="#gpPt1"/><use color="#006400" transform="translate(464.3,441.3) scale(4.50)" xlink:href="#gpPt1"/><use color="#006400" transform="translate(474.4,439.1) scale(4.50)" xlink:href="#gpPt1"/><use color="#006400" transform="translate(484.4,440.4) scale(4.50)" xlink:href="#gpPt1"/><use color="#006400" transform="translate(494.5,439.4) scale(4.50)" xlink:href="#gpPt1"/><use color="#006400" transform="translate(504.6,440.9) scale(4.50)" xlink:href="#gpPt1"/><use color="#006400" transform="translate(514.6,441.3) scale(4.50)" xlink:href="#gpPt1"/><use color="#006400" transform="translate(524.7,440.6) scale(4.50)" xlink:href="#gpPt1"/><use color="#006400" transform="translate(534.8,438.5) scale(4.50)" xlink:href="#gpPt1"/><use color="#006400" transform="translate(544.8,440.5) scale(4.50)" xlink:href="#gpPt1"/><use color="#006400" transform="translate(524.4,198.1) scale(4.50)" xlink:href="#gpPt1"/></g></g><g fill="none" stroke="currentColor" stroke-linecap="butt" stroke-linejoin="miter" stroke-width="3" color="#000"><path stroke="#000" d="M71.9,108.1 L71.9,444.0 L575.0,444.0 L575.0,108.1 L71.9,108.1 Z"/></g></g></svg>