<svg xmlns="http://www.w3.org/2000/svg" xmlns:xlink="http://www.w3.org/1999/xlink" width="600" height="480" viewBox="0 0 600 480"><title>Gnuplot</title><desc>Produced by GNUPLOT 5.2 patchlevel 8</desc><g id="gnuplot_canvas"><rect width="600" height="480" x="0" y="0" fill="#fff"/><defs><circle id="gpDot" r=".5" stroke="currentColor" stroke-width=".5"/><path id="gpPt0" stroke="currentColor" stroke-width=".222" d="M-1,0 h2 M0,-1 v2"/><path id="gpPt1" stroke="currentColor" stroke-width=".222" d="M-1,-1 L1,1 M1,-1 L-1,1"/><path id="gpPt2" stroke="currentColor" stroke-width=".222" d="M-1,0 L1,0 M0,-1 L0,1 M-1,-1 L1,1 M-1,1 L1,-1"/><rect id="gpPt3" width="2" height="2" x="-1" y="-1" stroke="currentColor" stroke-width=".222"/><rect id="gpPt4" width="2" height="2" x="-1" y="-1" fill="currentColor" stroke="currentColor" stroke-width=".222"/><circle id="gpPt5" cx="0" cy="0" r="1" stroke="currentColor" stroke-width=".222"/><use id="gpPt6" fill="currentColor" stroke="none" xlink:href="#gpPt5"/><path id="gpPt7" stroke="currentColor" stroke-width=".222" d="M0,-1.33 L-1.33,0.67 L1.33,0.67 z"/><use id="gpPt8" fill="currentColor" stroke="none" xlink:href="#gpPt7"/><use id="gpPt9" stroke="currentColor" transform="rotate(180)" xlink:href="#gpPt7"/><use id="gpPt10" fill="currentColor" stroke="none" xlink:href="#gpPt9"/><use id="gpPt11" stroke="currentColor" transform="rotate(45)" xlink:href="#gpPt3"/><use id="gpPt12" fill="currentColor" stroke="none" xlink:href="#gpPt11"/><path id="gpPt13" stroke="currentColor" stroke-width=".222" d="M0,1.330 L1.265,0.411 L0.782,-1.067 L-0.782,-1.076 L-1.265,0.411 z"/><use id="gpPt14" fill="currentColor" stroke="none" xlink:href="#gpPt13"/><filter id="textbox" width="1" height="1" x="0" y="0" filterUnits="objectBoundingBox"><feFlood flood-color="#FFF" flood-opacity="1" result="bgnd"/><feComposite in="SourceGraphic" in2="bgnd" operator="atop"/></filter><filter id="greybox" width="1" height="1" x="0" y="0" filterUnits="objectBoundingBox"><feFlood flood-color="#d3d3d3" flood-opacity="1" result="grey"/><feComposite in="SourceGraphic" in2="grey" operator="atop"/></filter></defs><g fill="none" stroke="currentColor" stroke-linecap="butt" stroke-linejoin="miter" stroke-width="1.5" color="gray"><path stroke="gray" stroke-dasharray="2 4" d="M71.9,444.0 L575.0,444.0" class="gridline"/></g><g fill="none" stroke="currentColor" stroke-linecap="butt" stroke-linejoin="miter" stroke-width="3" color="#000"><path stroke="#000" d="M71.9,444.0 L80.9,444.0 M575.0,444.0 L566.0,444.0"/><g fill="#000" stroke="none" font-family="Arial" font-size="12" text-anchor="end"><text transform="translate(63.6,447.9)"><tspan font-family="Arial">0</tspan></text></g></g><g fill="none" stroke="currentColor" stroke-linecap="butt" stroke-linejoin="miter" stroke-width="1.5" color="gray"><path stroke="gray" stroke-dasharray="2 4" d="M71.9,376.8 L575.0,376.8" class="gridline"/></g><g fill="none" stroke="currentColor" stroke-linecap="butt" stroke-linejoin="miter" stroke-width="3" color="#000"><path stroke="#000" d="M71.9,376.8 L80.9,376.8 M575.0,376.8 L566.0,376.8"/><g fill="#000" stroke="none" font-family="Arial" font-size="12" text-anchor="end"><text transform="translate(63.6,380.7)"><tspan font-family="Arial">20</tspan></text></g></g><g fill="none" stroke="currentColor" stroke-linecap="butt" stroke-linejoin="miter" stroke-width="1.5" color="gray"><path stroke="gray" stroke-dasharray="2 4" d="M71.9,309.6 L575.0,309.6" class="gridline"/></g><g fill="none" stroke="currentColor" stroke-linecap="butt" stroke-linejoin="miter" stroke-width="3" color="#000"><path stroke="#000" d="M71.9,309.6 L80.9,309.6 M575.0,309.6 L566.0,309.6"/><g fill="#000" stroke="none" font-family="Arial" font-size="12" text-anchor="end"><text transform="translate(63.6,313.5)"><tspan font-family="Arial">40</tspan></text></g></g><g fill="none" stroke="currentColor" stroke-linecap="butt" stroke-linejoin="miter" stroke-width="1.5" color="gray"><path stroke="gray" stroke-dasharray="2 4" d="M71.9,242.5 L575.0,242.5" class="gridline"/></g><g fill="none" stroke="currentColor" stroke-linecap="butt" stroke-linejoin="miter" stroke-width="3" color="#000"><path stroke="#000" d="M71.9,242.5 L80.9,242.5 M575.0,242.5 L566.0,242.5"/><g fill="#000" stroke="none" font-family="Arial" font-size="12" text-anchor="end"><text transform="translate(63.6,246.4)"><tspan font-family="Arial">60</tspan></text></g></g><g fill="none" stroke="currentColor" stroke-linecap="butt" stroke-linejoin="miter" stroke-width="1.5" color="gray"><path stroke="gray" stroke-dasharray="2 4" d="M71.9,175.3 L343.5,175.3 M566.7,175.3 L575.0,175.3" class="gridline"/></g><g fill="none" stroke="currentColor" stroke-linecap="butt" stroke-linejoin="miter" stroke-width="3" color="#000"><path stroke="#000" d="M71.9,175.3 L80.9,175.3 M575.0,175.3 L566.0,175.3"/><g fill="#000" stroke="none" font-family="Arial" font-size="12" text-anchor="end"><text transform="translate(63.6,179.2)"><tspan font-family="Arial">80</tspan></text></g></g><g fill="none" stroke="currentColor" stroke-linecap="butt" stroke-linejoin="miter" stroke-width="1.5" color="gray"><path stroke="gray" stroke-dasharray="2 4" d="M71.9,108.1 L575.0,108.1" class="gridline"/></g><g fill="none" stroke="currentColor" stroke-linecap="butt" stroke-linejoin="miter" stroke-width="3" color="#000"><path stroke="#000" d="M71.9,108.1 L80.9,108.1 M575.0,108.1 L566.0,108.1"/><g fill="#000" stroke="none" font-family="Arial" font-size="12" text-anchor="end"><text transform="translate(63.6,112.0)"><tspan font-family="Arial">100</tspan></text></g></g><g fill="none" stroke="currentColor" stroke-linecap="butt" stroke-linejoin="miter" stroke-width="1.5" color="gray"><path stroke="gray" stroke-dasharray="2 4" d="M71.9,444.0 L71.9,108.1" class="gridline"/></g><g fill="none" stroke="currentColor" stroke-linecap="butt" stroke-linejoin="miter" stroke-width="3" color="#000"><path stroke="#000" d="M71.9,444.0 L71.9,435.0 M71.9,108.1 L71.9,117.1"/><g fill="#000" stroke="none" font-family="Arial" font-size="12" text-anchor="middle"><text transform="translate(71.9,465.9)"><tspan font-family="Arial">0</tspan></text></g></g><g fill="none" stroke="currentColor" stroke-linecap="butt" stroke-linejoin="miter" stroke-width="1.5" color="gray"><path stroke="gray" stroke-dasharray="2 4" d="M122.2,444.0 L122.2,108.1" class="gridline"/></g><g fill="none" stroke="currentColor" stroke-linecap="butt" stroke-linejoin="miter" stroke-width="3" color="#000"><path stroke="#000" d="M122.2,444.0 L122.2,435.0 M122.2,108.1 L122.2,117.1"/><g fill="#000" stroke="none" font-family="Arial" font-size="12" text-anchor="middle"><text transform="translate(122.2,465.9)"><tspan font-family="Arial">5</tspan></text></g></g><g fill="none" stroke="currentColor" stroke-linecap="butt" stroke-linejoin="miter" stroke-width="1.5" color="gray"><path stroke="gray" stroke-dasharray="2 4" d="M172.5,444.0 L172.5,108.1" class="gridline"/></g><g fill="none" stroke="currentColor" stroke-linecap="butt" stroke-linejoin="miter" stroke-width="3" color="#000"><path stroke="#000" d="M172.5,444.0 L172.5,435.0 M172.5,108.1 L172.5,117.1"/><g fill="#000" stroke="none" font-family="Arial" font-size="12" text-anchor="middle"><text transform="translate(172.5,465.9)"><tspan font-family="Arial">10</tspan></text></g></g><g fill="none" stroke="currentColor" stroke-linecap="butt" stroke-linejoin="miter" stroke-width="1.5" color="gray"><path stroke="gray" stroke-dasharray="2 4" d="M222.8,444.0 L222.8,108.1" class="gridline"/></g><g fill="none" stroke="currentColor" stroke-linecap="butt" stroke-linejoin="miter" stroke-width="3" color="#000"><path stroke="#000" d="M222.8,444.0 L222.8,435.0 M222.8,108.1 L222.8,117.1"/><g fill="#000" stroke="none" font-family="Arial" font-size="12" text-anchor="middle"><text transform="translate(222.8,465.9)"><tspan font-family="Arial">15</tspan></text></g></g><g fill="none" stroke="currentColor" stroke-linecap="butt" stroke-linejoin="miter" stroke-width="1.5" color="gray"><path stroke="gray" stroke-dasharray="2 4" d="M273.1,444.0 L273.1,108.1" class="gridline"/></g><g fill="none" stroke="currentColor" stroke-linecap="butt" stroke-linejoin="miter" stroke-width="3" color="#000"><path stroke="#000" d="M273.1,444.0 L273.1,435.0 M273.1,108.1 L273.1,117.1"/><g fill="#000" stroke="none" font-family="Arial" font-size="12" text-anchor="middle"><text transform="translate(273.1,465.9)"><tspan font-family="Arial">20</tspan></text></g></g><g fill="none" stroke="currentColor" stroke-linecap="butt" stroke-linejoin="miter" stroke-width="1.5" color="gray"><path stroke="gray" stroke-dasharray="2 4" d="M323.5,444.0 L323.5,108.1" class="gridline"/></g><g fill="none" stroke="currentColor" stroke-linecap="butt" stroke-linejoin="miter" stroke-width="3" color="#000"><path stroke="#000" d="M323.5,444.0 L323.5,435.0 M323.5,108.1 L323.5,117.1"/><g fill="#000" stroke="none" font-family="Arial" font-size="12" text-anchor="middle"><text transform="translate(323.5,465.9)"><tspan font-family="Arial">25</tspan></text></g></g><g fill="none" stroke="currentColor" stroke-linecap="butt" stroke-linejoin="miter" stroke-width="1.5" color="gray"><path stroke="gray" stroke-dasharray="2 4" d="M373.8,444.0 L373.8,225.1 M373.8,117.1 L373.8,108.1" class="gridline"/></g><g fill="none" stroke="currentColor" stroke-linecap="butt" stroke-linejoin="miter" stroke-width="3" color="#000"><path stroke="#000" d="M373.8,444.0 L373.8,435.0 M373.8,108.1 L373.8,117.1"/><g fill="#000" stroke="none" font-family="Arial" font-size="12" text-anchor="middle"><text transform="translate(373.8,465.9)"><tspan font-family="Arial">30</tspan></text></g></g><g fill="none" stroke="currentColor" stroke-linecap="butt" stroke-linejoin="miter" stroke-width="1.5" color="gray"><path stroke="gray" stroke-dasharray="2 4" d="M424.1,444.0 L424.1,225.1 M424.1,117.1 L424.1,108.1" class="gridline"/></g><g fill="none" stroke="currentColor" stroke-linecap="butt" stroke-linejoin="miter" stroke-width="3" color="#000"><path stroke="#000" d="M424.1,444.0 L424.1,435.0 M424.1,108.1 L424.1,117.1"/><g fill="#000" stroke="none" font-family="Arial" font-size="12" text-anchor="middle"><text transform="translate(424.1,465.9)"><tspan font-family="Arial">35</tspan></text></g></g><g fill="none" stroke="currentColor" stroke-linecap="butt" stroke-linejoin="miter" stroke-width="1.5" color="gray"><path stroke="gray" stroke-dasharray="2 4" d="M474.4,444.0 L474.4,225.1 M474.4,117.1 L474.4,108.1" class="gridline"/></g><g fill="none" stroke="currentColor" stroke-linecap="butt" stroke-linejoin="miter" stroke-width="3" color="#000"><path stroke="#000" d="M474.4,444.0 L474.4,435.0 M474.4,108.1 L474.4,117.1"/><g fill="#000" stroke="none" font-family="Arial" font-size="12" text-anchor="middle"><text transform="translate(474.4,465.9)"><tspan font-family="Arial">40</tspan></text></g></g><g fill="none" stroke="currentColor" stroke-linecap="butt" stroke-linejoin="miter" stroke-width="1.5" color="gray"><path stroke="gray" stroke-dasharray="2 4" d="M524.7,444.0 L524.7,225.1 M524.7,117.1 L524.7,108.1" class="gridline"/></g><g fill="none" stroke="currentColor" stroke-linecap="butt" stroke-linejoin="miter" stroke-width="3" color="#000"><path stroke="#000" d="M524.7,444.0 L524.7,435.0 M524.7,108.1 L524.7,117.1"/><g fill="#000" stroke="none" font-family="Arial" font-size="12" text-anchor="middle"><text transform="translate(524.7,465.9)"><tspan font-family="Arial">45</tspan></text></g></g><g fill="none" stroke="currentColor" stroke-linecap="butt" stroke-linejoin="miter" stroke-width="1.5" color="gray"><path stroke="gray" stroke-dasharray="2 4" d="M575.0,444.0 L575.0,108.1" class="gridline"/></g><g fill="none" stroke="currentColor" stroke-linecap="butt" stroke-linejoin="miter" stroke-width="3" color="#000"><path stroke="#000" d="M575.0,444.0 L575.0,435.0 M575.0,108.1 L575.0,117.1"/><g fill="#000" stroke="none" font-family="Arial" font-size="12" text-anchor="middle"><text transform="translate(575.0,465.9)"><tspan font-family="Arial">50</tspan></text></g></g><g fill="none" stroke="currentColor" stroke-linecap="butt" stroke-linejoin="miter" stroke-width="3" color="#000"><path stroke="#000" d="M71.9,108.1 L71.9,444.0 L575.0,444.0 L575.0,108.1 L71.9,108.1 Z"/></g><g fill="none" stroke="currentColor" stroke-linecap="butt" stroke-linejoin="miter" stroke-width="3" color="#000"><g fill="#000" stroke="none" font-family="Arial" font-size="12" text-anchor="middle"><text transform="translate(19.0,276.1) rotate(270)"><tspan font-family="Arial">packet arrival [%]</tspan></text></g></g><g fill="none" stroke="currentColor" stroke-linecap="butt" stroke-linejoin="miter" stroke-width="3" color="#000"><g fill="#000" stroke="none" font-family="Arial" font-size="12" text-anchor="middle"><text transform="translate(323.4,31.0)">Mobility2 Test for 50 randomly placed nodes in a 1x1km square.</text></g><g fill="#000" stroke="none" font-family="Arial" font-size="12" text-anchor="middle"><text transform="translate(323.4,49.0)">Move in random directions of 50-400m in 50m increments.</text></g><g fill="#000" stroke="none" font-family="Arial" font-size="12" text-anchor="middle"><text transform="translate(323.4,67.0)">Wait and measure ping arrival over 60s in 10s intervals each time.</text></g><g fill="#000" stroke="none" font-family="Arial" font-size="12" text-anchor="middle"><text transform="translate(323.4,85.0)">100MBit/s - 1ms latency links.</text></g></g><g id="gnuplot_plot_1"><title>v0.3.16 [%]</title><g fill="none" stroke="currentColor" stroke-linecap="butt" stroke-linejoin="miter" stroke-width="3" color="#000"><g fill="#000" stroke="none" font-family="Helvetica" font-size="18" text-anchor="end"><text transform="translate(482.1,150.0)"><tspan font-family="Helvetica">v0.3.16 [%]</tspan></text></g></g><g fill="none" stroke="currentColor" stroke-linecap="butt" stroke-linejoin="miter" stroke-width="3" color="#000"><path stroke="#C080FF" d="M494.7,144.1 L554.1,144.1 M71.9,386.9 L82.0,398.7 L92.0,267.7 L102.1,376.8 L112.1,391.9 L122.2,313.0 L132.3,410.4 L142.3,408.7 L152.4,405.4 L162.5,381.9 L172.5,397.0 L182.6,383.5 L192.6,366.7 L202.7,370.1 L212.8,391.9 L222.8,338.2 L232.9,338.2 L243.0,313.0 L253.0,343.2 L263.1,355.0 L273.1,371.8 L283.2,296.2 L293.3,333.2 L303.3,329.8 L313.4,349.9 L323.5,333.2 L333.5,272.7 L343.6,326.4 L353.6,338.2 L363.7,297.9 L373.8,373.5 L383.8,336.5 L393.9,381.9 L403.9,358.3 L414.0,353.3 L424.1,355.0 L434.1,373.5 L444.2,383.5 L454.3,353.3 L464.3,358.3 L474.4,371.8 L484.4,356.7 L494.5,395.3 L504.6,371.8 L514.6,366.7 L524.7,363.4 L534.8,314.7 L544.8,358.3"/><use color="#C080FF" transform="translate(71.9,386.9) scale(4.50)" xlink:href="#gpPt0"/><use color="#C080FF" transform="translate(82.0,398.7) scale(4.50)" xlink:href="#gpPt0"/><use color="#C080FF" transform="translate(92.0,267.7) scale(4.50)" xlink:href="#gpPt0"/><use color="#C080FF" transform="translate(102.1,376.8) scale(4.50)" xlink:href="#gpPt0"/><use color="#C080FF" transform="translate(112.1,391.9) scale(4.50)" xlink:href="#gpPt0"/><use color="#C080FF" transform="translate(122.2,313.0) scale(4.50)" xlink:href="#gpPt0"/><use color="#C080FF" transform="translate(132.3,410.4) scale(4.50)" xlink:href="#gpPt0"/><use color="#C080FF" transform="translate(142.3,408.7) scale(4.50)" xlink:href="#gpPt0"/><use color="#C080FF" transform="translate(152.4,405.4) scale(4.50)" xlink:href="#gpPt0"/><use color="#C080FF" transform="translate(162.5,381.9) scale(4.50)" xlink:href="#gpPt0"/><use color="#C080FF" transform="translate(172.5,397.0) scale(4.50)" xlink:href="#gpPt0"/><use color="#C080FF" transform="translate(182.6,383.5) scale(4.50)" xlink:href="#gpPt0"/><use color="#C080FF" transform="translate(192.6,366.7) scale(4.50)" xlink:href="#gpPt0"/><use color="#C080FF" transform="translate(202.7,370.1) scale(4.50)" xlink:href="#gpPt0"/><use color="#C080FF" transform="translate(212.8,391.9) scale(4.50)" xlink:href="#gpPt0"/><use color="#C080FF" transform="translate(222.8,338.2) scale(4.50)" xlink:href="#gpPt0"/><use color="#C080FF" transform="translate(232.9,338.2) scale(4.50)" xlink:href="#gpPt0"/><use color="#C080FF" transform="translate(243.0,313.0) scale(4.50)" xlink:href="#gpPt0"/><use color="#C080FF" transform="translate(253.0,343.2) scale(4.50)" xlink:href="#gpPt0"/><use color="#C080FF" transform="translate(263.1,355.0) scale(4.50)" xlink:href="#gpPt0"/><use color="#C080FF" transform="translate(273.1,371.8) scale(4.50)" xlink:href="#gpPt0"/><use color="#C080FF" transform="translate(283.2,296.2) scale(4.50)" xlink:href="#gpPt0"/><use color="#C080FF" transform="translate(293.3,333.2) scale(4.50)" xlink:href="#gpPt0"/><use color="#C080FF" transform="translate(303.3,329.8) scale(4.50)" xlink:href="#gpPt0"/><use color="#C080FF" transform="translate(313.4,349.9) scale(4.50)" xlink:href="#gpPt0"/><use color="#C080FF" transform="translate(323.5,333.2) scale(4.50)" xlink:href="#gpPt0"/><use color="#C080FF" transform="translate(333.5,272.7) scale(4.50)" xlink:href="#gpPt0"/><use color="#C080FF" transform="translate(343.6,326.4) scale(4.50)" xlink:href="#gpPt0"/><use color="#C080FF" transform="translate(353.6,338.2) scale(4.50)" xlink:href="#gpPt0"/><use color="#C080FF" transform="translate(363.7,297.9) scale(4.50)" xlink:href="#gpPt0"/><use color="#C080FF" transform="translate(373.8,373.5) scale(4.50)" xlink:href="#gpPt0"/><use color="#C080FF" transform="translate(383.8,336.5) scale(4.50)" xlink:href="#gpPt0"/><use color="#C080FF" transform="translate(393.9,381.9) scale(4.50)" xlink:href="#gpPt0"/><use color="#C080FF" transform="translate(403.9,358.3) scale(4.50)" xlink:href="#gpPt0"/><use color="#C080FF" transform="translate(414.0,353.3) scale(4.50)" xlink:href="#gpPt0"/><use color="#C080FF" transform="translate(424.1,355.0) scale(4.50)" xlink:href="#gpPt0"/><use color="#C080FF" transform="translate(434.1,373.5) scale(4.50)" xlink:href="#gpPt0"/><use color="#C080FF" transform="translate(444.2,383.5) scale(4.50)" xlink:href="#gpPt0"/><use color="#C080FF" transform="translate(454.3,353.3) scale(4.50)" xlink:href="#gpPt0"/><use color="#C080FF" transform="translate(464.3,358.3) scale(4.50)" xlink:href="#gpPt0"/><use color="#C080FF" transform="translate(474.4,371.8) scale(4.50)" xlink:href="#gpPt0"/><use color="#C080FF" transform="translate(484.4,356.7) scale(4.50)" xlink:href="#gpPt0"/><use color="#C080FF" transform="translate(494.5,395.3) scale(4.50)" xlink:href="#gpPt0"/><use color="#C080FF" transform="translate(504.6,371.8) scale(4.50)" xlink:href="#gpPt0"/><use color="#C080FF" transform="translate(514.6,366.7) scale(4.50)" xlink:href="#gpPt0"/><use color="#C080FF" transform="translate(524.7,363.4) scale(4.50)" xlink:href="#gpPt0"/><use color="#C080FF" transform="translate(534.8,314.7) scale(4.50)" xlink:href="#gpPt0"/><use color="#C080FF" transform="translate(544.8,358.3) scale(4.50)" xlink:href="#gpPt0"/><use color="#C080FF" transform="translate(524.4,144.1) scale(4.50)" xlink:href="#gpPt0"/></g></g><g id="gnuplot_plot_2"><title>v0.4rc3 [%]</title><g fill="none" stroke="currentColor" stroke-linecap="butt" stroke-linejoin="miter" stroke-width="3" color="#000"><g fill="#000" stroke="none" font-family="Helvetica" font-size="18" text-anchor="end"><text transform="translate(482.1,204.0)"><tspan font-family="Helvetica">v0.4rc3 [%]</tspan></text></g></g><g fill="none" stroke="currentColor" stroke-linecap="butt" stroke-linejoin="miter" stroke-width="3" color="#000"><path stroke="#006400" d="M494.7,198.1 L554.1,198.1 M71.9,108.1 L82.0,108.1 L92.0,108.1 L102.1,108.1 L112.1,108.1 L122.2,108.1 L132.3,108.1 L142.3,108.1 L152.4,108.1 L162.5,108.1 L172.5,108.1 L182.6,108.1 L192.6,108.1 L202.7,108.1 L212.8,119.9 L222.8,108.1 L232.9,109.8 L243.0,108.1 L253.0,148.4 L263.1,111.5 L273.1,108.1 L283.2,108.1 L293.3,108.1 L303.3,108.1 L313.4,108.1 L323.5,108.1 L333.5,118.2 L343.6,128.3 L353.6,109.8 L363.7,116.5 L373.8,114.8 L383.8,128.3 L393.9,109.8 L403.9,124.9 L414.0,108.1 L424.1,108.1 L434.1,108.1 L444.2,108.1 L454.3,108.1 L464.3,116.5 L474.4,111.5 L484.4,108.1 L494.5,108.1 L504.6,108.1 L514.6,108.1 L524.7,135.0 L534.8,109.8 L544.8,108.1"/><use color="#006400" transform="translate(71.9,108.1) scale(4.50)" xlink:href="#gpPt1"/><use color="#006400" transform="translate(82.0,108.1) scale(4.50)" xlink:href="#gpPt1"/><use color="#006400" transform="translate(92.0,108.1) scale(4.50)" xlink:href="#gpPt1"/><use color="#006400" transform="translate(102.1,108.1) scale(4.50)" xlink:href="#gpPt1"/><use color="#006400" transform="translate(112.1,108.1) scale(4.50)" xlink:href="#gpPt1"/><use color="#006400" transform="translate(122.2,108.1) scale(4.50)" xlink:href="#gpPt1"/><use color="#006400" transform="translate(132.3,108.1) scale(4.50)" xlink:href="#gpPt1"/><use color="#006400" transform="translate(142.3,108.1) scale(4.50)" xlink:href="#gpPt1"/><use color="#006400" transform="translate(152.4,108.1) scale(4.50)" xlink:href="#gpPt1"/><use color="#006400" transform="translate(162.5,108.1) scale(4.50)" xlink:href="#gpPt1"/><use color="#006400" transform="translate(172.5,108.1) scale(4.50)" xlink:href="#gpPt1"/><use color="#006400" transform="translate(182.6,108.1) scale(4.50)" xlink:href="#gpPt1"/><use color="#006400" transform="translate(192.6,108.1) scale(4.50)" xlink:href="#gpPt1"/><use color="#006400" transform="translate(202.7,108.1) scale(4.50)" xlink:href="#gpPt1"/><use color="#006400" transform="translate(212.8,119.9) scale(4.50)" xlink:href="#gpPt1"/><use color="#006400" transform="translate(222.8,108.1) scale(4.50)" xlink:href="#gpPt1"/><use color="#006400" transform="translate(232.9,109.8) scale(4.50)" xlink:href="#gpPt1"/><use color="#006400" transform="translate(243.0,108.1) scale(4.50)" xlink:href="#gpPt1"/><use color="#006400" transform="translate(253.0,148.4) scale(4.50)" xlink:href="#gpPt1"/><use color="#006400" transform="translate(263.1,111.5) scale(4.50)" xlink:href="#gpPt1"/><use color="#006400" transform="translate(273.1,108.1) scale(4.50)" xlink:href="#gpPt1"/><use color="#006400" transform="translate(283.2,108.1) scale(4.50)" xlink:href="#gpPt1"/><use color="#006400" transform="translate(293.3,108.1) scale(4.50)" xlink:href="#gpPt1"/><use color="#006400" transform="translate(303.3,108.1) scale(4.50)" xlink:href="#gpPt1"/><use color="#006400" transform="translate(313.4,108.1) scale(4.50)" xlink:href="#gpPt1"/><use color="#006400" transform="translate(323.5,108.1) scale(4.50)" xlink:href="#gpPt1"/><use color="#006400" transform="translate(333.5,118.2) scale(4.50)" xlink:href="#gpPt1"/><use color="#006400" transform="translate(343.6,128.3) scale(4.50)" xlink:href="#gpPt1"/><use color="#006400" transform="translate(353.6,109.8) scale(4.50)" xlink:href="#gpPt1"/><use color="#006400" transform="translate(363.7,116.5) scale(4.50)" xlink:href="#gpPt1"/><use color="#006400" transform="translate(373.8,114.8) scale(4.50)" xlink:href="#gpPt1"/><use color="#006400" transform="translate(383.8,128.3) scale(4.50)" xlink:href="#gpPt1"/><use color="#006400" transform="translate(393.9,109.8) scale(4.50)" xlink:href="#gpPt1"/><use color="#006400" transform="translate(403.9,124.9) scale(4.50)" xlink:href="#gpPt1"/><use color="#006400" transform="translate(414.0,108.1) scale(4.50)" xlink:href="#gpPt1"/><use color="#006400" transform="translate(424.1,108.1) scale(4.50)" xlink:href="#gpPt1"/><use color="#006400" transform="translate(434.1,108.1) scale(4.50)" xlink:href="#gpPt1"/><use color="#006400" transform="translate(444.2,108.1) scale(4.50)" xlink:href="#gpPt1"/><use color="#006400" transform="translate(454.3,108.1) scale(4.50)" xlink:href="#gpPt1"/><use color="#006400" transform="translate(464.3,116.5) scale(4.50)" xlink:href="#gpPt1"/><use color="#006400" transform="translate(474.4,111.5) scale(4.50)" xlink:href="#gpPt1"/><use color="#006400" transform="translate(484.4,108.1) scale(4.50)" xlink:href="#gpPt1"/><use color="#006400" transform="translate(494.5,108.1) scale(4.50)" xlink:href="#gpPt1"/><use color="#006400" transform="translate(504.6,108.1) scale(4.50)" xlink:href="#gpPt1"/><use color="#006400" transform="translate(514.6,108.1) scale(4.50)" xlink:href="#gpPt1"/><use color="#006400" transform="translate(524.7,135.0) scale(4.50)" xlink:href="#gpPt1"/><use color="#006400" transform="translate(534.8,109.8) scale(4.50)" xlink:href="#gpPt1"/><use color="#006400" transform="translate(544.8,108.1) scale(4.50)" xlink:href="#gpPt1"/><use color="#006400" transform="translate(524.4,198.1) scale(4.50)" xlink:href="#gpPt1"/></g></g><g fill="none" stroke="currentColor" stroke-linecap="butt" stroke-linejoin="miter" stroke-width="3" color="#000"><path stroke="#000" d="M71.9,108.1 L71.9,444.0 L575.0,444.0 L575.0,108.1 L71.9,108.1 Z"/></g></g></svg>