<svg xmlns="http://www.w3.org/2000/svg" xmlns:xlink="http://www.w3.org/1999/xlink" width="600" height="480" viewBox="0 0 600 480"><title>Gnuplot</title><desc>Produced by GNUPLOT 5.2 patchlevel 8</desc><g id="gnuplot_canvas"><rect width="600" height="480" x="0" y="0" fill="#fff"/><defs><circle id="gpDot" r=".5" stroke="currentColor" stroke-width=".5"/><path id="gpPt0" stroke="currentColor" stroke-width=".222" d="M-1,0 h2 M0,-1 v2"/><path id="gpPt1" stroke="currentColor" stroke-width=".222" d="M-1,-1 L1,1 M1,-1 L-1,1"/><path id="gpPt2" stroke="currentColor" stroke-width=".222" d="M-1,0 L1,0 M0,-1 L0,1 M-1,-1 L1,1 M-1,1 L1,-1"/><rect id="gpPt3" width="2" height="2" x="-1" y="-1" stroke="currentColor" stroke-width=".222"/><rect id="gpPt4" width="2" height="2" x="-1" y="-1" fill="currentColor" stroke="currentColor" stroke-width=".222"/><circle id="gpPt5" cx="0" cy="0" r="1" stroke="currentColor" stroke-width=".222"/><use id="gpPt6" fill="currentColor" stroke="none" xlink:href="#gpPt5"/><path id="gpPt7" stroke="currentColor" stroke-width=".222" d="M0,-1.33 L-1.33,0.67 L1.33,0.67 z"/><use id="gpPt8" fill="currentColor" stroke="none" xlink:href="#gpPt7"/><use id="gpPt9" stroke="currentColor" transform="rotate(180)" xlink:href="#gpPt7"/><use id="gpPt10" fill="currentColor" stroke="none" xlink:href="#gpPt9"/><use id="gpPt11" stroke="currentColor" transform="rotate(45)" xlink:href="#gpPt3"/><use id="gpPt12" fill="currentColor" stroke="none" xlink:href="#gpPt11"/><path id="gpPt13" stroke="currentColor" stroke-width=".222" d="M0,1.330 L1.265,0.411 L0.782,-1.067 L-0.782,-1.076 L-1.265,0.411 z"/><use id="gpPt14" fill="currentColor" stroke="none" xlink:href="#gpPt13"/><filter id="textbox" width="1" height="1" x="0" y="0" filterUnits="objectBoundingBox"><feFlood flood-color="#FFF" flood-opacity="1" result="bgnd"/><feComposite in="SourceGraphic" in2="bgnd" operator="atop"/></filter><filter id="greybox" width="1" height="1" x="0" y="0" filterUnits="objectBoundingBox"><feFlood flood-color="#d3d3d3" flood-opacity="1" result="grey"/><feComposite in="SourceGraphic" in2="grey" operator="atop"/></filter></defs><g fill="none" stroke="currentColor" stroke-linecap="butt" stroke-linejoin="miter" stroke-width="1.5" color="gray"><path stroke="gray" stroke-dasharray="2 4" d="M71.9,422.4 L575.0,422.4" class="gridline"/></g><g fill="none" stroke="currentColor" stroke-linecap="butt" stroke-linejoin="miter" stroke-width="3" color="#000"><path stroke="#000" d="M71.9,422.4 L80.9,422.4 M575.0,422.4 L566.0,422.4"/><g fill="#000" stroke="none" font-family="Arial" font-size="12" text-anchor="end"><text transform="translate(63.6,426.3)"><tspan font-family="Arial">0</tspan></text></g></g><g fill="none" stroke="currentColor" stroke-linecap="butt" stroke-linejoin="miter" stroke-width="1.5" color="gray"><path stroke="gray" stroke-dasharray="2 4" d="M71.9,352.3 L575.0,352.3" class="gridline"/></g><g fill="none" stroke="currentColor" stroke-linecap="butt" stroke-linejoin="miter" stroke-width="3" color="#000"><path stroke="#000" d="M71.9,352.3 L80.9,352.3 M575.0,352.3 L566.0,352.3"/><g fill="#000" stroke="none" font-family="Arial" font-size="12" text-anchor="end"><text transform="translate(63.6,356.2)"><tspan font-family="Arial">20</tspan></text></g></g><g fill="none" stroke="currentColor" stroke-linecap="butt" stroke-linejoin="miter" stroke-width="1.5" color="gray"><path stroke="gray" stroke-dasharray="2 4" d="M71.9,282.3 L343.5,282.3 M566.7,282.3 L575.0,282.3" class="gridline"/></g><g fill="none" stroke="currentColor" stroke-linecap="butt" stroke-linejoin="miter" stroke-width="3" color="#000"><path stroke="#000" d="M71.9,282.3 L80.9,282.3 M575.0,282.3 L566.0,282.3"/><g fill="#000" stroke="none" font-family="Arial" font-size="12" text-anchor="end"><text transform="translate(63.6,286.2)"><tspan font-family="Arial">40</tspan></text></g></g><g fill="none" stroke="currentColor" stroke-linecap="butt" stroke-linejoin="miter" stroke-width="1.5" color="gray"><path stroke="gray" stroke-dasharray="2 4" d="M71.9,212.2 L343.5,212.2 M566.7,212.2 L575.0,212.2" class="gridline"/></g><g fill="none" stroke="currentColor" stroke-linecap="butt" stroke-linejoin="miter" stroke-width="3" color="#000"><path stroke="#000" d="M71.9,212.2 L80.9,212.2 M575.0,212.2 L566.0,212.2"/><g fill="#000" stroke="none" font-family="Arial" font-size="12" text-anchor="end"><text transform="translate(63.6,216.1)"><tspan font-family="Arial">60</tspan></text></g></g><g fill="none" stroke="currentColor" stroke-linecap="butt" stroke-linejoin="miter" stroke-width="1.5" color="gray"><path stroke="gray" stroke-dasharray="2 4" d="M71.9,142.2 L575.0,142.2" class="gridline"/></g><g fill="none" stroke="currentColor" stroke-linecap="butt" stroke-linejoin="miter" stroke-width="3" color="#000"><path stroke="#000" d="M71.9,142.2 L80.9,142.2 M575.0,142.2 L566.0,142.2"/><g fill="#000" stroke="none" font-family="Arial" font-size="12" text-anchor="end"><text transform="translate(63.6,146.1)"><tspan font-family="Arial">80</tspan></text></g></g><g fill="none" stroke="currentColor" stroke-linecap="butt" stroke-linejoin="miter" stroke-width="1.5" color="gray"><path stroke="gray" stroke-dasharray="2 4" d="M71.9,72.1 L575.0,72.1" class="gridline"/></g><g fill="none" stroke="currentColor" stroke-linecap="butt" stroke-linejoin="miter" stroke-width="3" color="#000"><path stroke="#000" d="M71.9,72.1 L80.9,72.1 M575.0,72.1 L566.0,72.1"/><g fill="#000" stroke="none" font-family="Arial" font-size="12" text-anchor="end"><text transform="translate(63.6,76.0)"><tspan font-family="Arial">100</tspan></text></g></g><g fill="none" stroke="currentColor" stroke-linecap="butt" stroke-linejoin="miter" stroke-width="1.5" color="gray"><path stroke="gray" stroke-dasharray="2 4" d="M71.9,422.4 L71.9,72.1" class="gridline"/></g><g fill="none" stroke="currentColor" stroke-linecap="butt" stroke-linejoin="miter" stroke-width="3" color="#000"><path stroke="#000" d="M71.9,422.4 L71.9,413.4 M71.9,72.1 L71.9,81.1"/><g fill="#000" stroke="none" font-family="Arial" font-size="12" text-anchor="middle"><text transform="translate(71.9,444.3)"><tspan font-family="Arial">0</tspan></text></g></g><g fill="none" stroke="currentColor" stroke-linecap="butt" stroke-linejoin="miter" stroke-width="1.5" color="gray"><path stroke="gray" stroke-dasharray="2 4" d="M155.8,422.4 L155.8,72.1" class="gridline"/></g><g fill="none" stroke="currentColor" stroke-linecap="butt" stroke-linejoin="miter" stroke-width="3" color="#000"><path stroke="#000" d="M155.8,422.4 L155.8,413.4 M155.8,72.1 L155.8,81.1"/><g fill="#000" stroke="none" font-family="Arial" font-size="12" text-anchor="middle"><text transform="translate(155.8,444.3)"><tspan font-family="Arial">5</tspan></text></g></g><g fill="none" stroke="currentColor" stroke-linecap="butt" stroke-linejoin="miter" stroke-width="1.5" color="gray"><path stroke="gray" stroke-dasharray="2 4" d="M239.6,422.4 L239.6,72.1" class="gridline"/></g><g fill="none" stroke="currentColor" stroke-linecap="butt" stroke-linejoin="miter" stroke-width="3" color="#000"><path stroke="#000" d="M239.6,422.4 L239.6,413.4 M239.6,72.1 L239.6,81.1"/><g fill="#000" stroke="none" font-family="Arial" font-size="12" text-anchor="middle"><text transform="translate(239.6,444.3)"><tspan font-family="Arial">10</tspan></text></g></g><g fill="none" stroke="currentColor" stroke-linecap="butt" stroke-linejoin="miter" stroke-width="1.5" color="gray"><path stroke="gray" stroke-dasharray="2 4" d="M323.5,422.4 L323.5,72.1" class="gridline"/></g><g fill="none" stroke="currentColor" stroke-linecap="butt" stroke-linejoin="miter" stroke-width="3" color="#000"><path stroke="#000" d="M323.5,422.4 L323.5,413.4 M323.5,72.1 L323.5,81.1"/><g fill="#000" stroke="none" font-family="Arial" font-size="12" text-anchor="middle"><text transform="translate(323.5,444.3)"><tspan font-family="Arial">15</tspan></text></g></g><g fill="none" stroke="currentColor" stroke-linecap="butt" stroke-linejoin="miter" stroke-width="1.5" color="gray"><path stroke="gray" stroke-dasharray="2 4" d="M407.3,422.4 L407.3,301.3 M407.3,193.3 L407.3,72.1" class="gridline"/></g><g fill="none" stroke="currentColor" stroke-linecap="butt" stroke-linejoin="miter" stroke-width="3" color="#000"><path stroke="#000" d="M407.3,422.4 L407.3,413.4 M407.3,72.1 L407.3,81.1"/><g fill="#000" stroke="none" font-family="Arial" font-size="12" text-anchor="middle"><text transform="translate(407.3,444.3)"><tspan font-family="Arial">20</tspan></text></g></g><g fill="none" stroke="currentColor" stroke-linecap="butt" stroke-linejoin="miter" stroke-width="1.5" color="gray"><path stroke="gray" stroke-dasharray="2 4" d="M491.2,422.4 L491.2,301.3 M491.2,193.3 L491.2,72.1" class="gridline"/></g><g fill="none" stroke="currentColor" stroke-linecap="butt" stroke-linejoin="miter" stroke-width="3" color="#000"><path stroke="#000" d="M491.2,422.4 L491.2,413.4 M491.2,72.1 L491.2,81.1"/><g fill="#000" stroke="none" font-family="Arial" font-size="12" text-anchor="middle"><text transform="translate(491.2,444.3)"><tspan font-family="Arial">25</tspan></text></g></g><g fill="none" stroke="currentColor" stroke-linecap="butt" stroke-linejoin="miter" stroke-width="1.5" color="gray"><path stroke="gray" stroke-dasharray="2 4" d="M575.0,422.4 L575.0,72.1" class="gridline"/></g><g fill="none" stroke="currentColor" stroke-linecap="butt" stroke-linejoin="miter" stroke-width="3" color="#000"><path stroke="#000" d="M575.0,422.4 L575.0,413.4 M575.0,72.1 L575.0,81.1"/><g fill="#000" stroke="none" font-family="Arial" font-size="12" text-anchor="middle"><text transform="translate(575.0,444.3)"><tspan font-family="Arial">30</tspan></text></g></g><g fill="none" stroke="currentColor" stroke-linecap="butt" stroke-linejoin="miter" stroke-width="3" color="#000"><path stroke="#000" d="M71.9,72.1 L71.9,422.4 L575.0,422.4 L575.0,72.1 L71.9,72.1 Z"/></g><g fill="none" stroke="currentColor" stroke-linecap="butt" stroke-linejoin="miter" stroke-width="3" color="#000"><g fill="#000" stroke="none" font-family="Arial" font-size="12" text-anchor="middle"><text transform="translate(19.0,247.3) rotate(270)"><tspan font-family="Arial">packet arrival [%]</tspan></text></g></g><g fill="none" stroke="currentColor" stroke-linecap="butt" stroke-linejoin="miter" stroke-width="3" color="#000"><g fill="#000" stroke="none" font-family="Arial" font-size="12" text-anchor="middle"><text transform="translate(323.4,471.3)"><tspan font-family="Arial">10s steps [-]</tspan></text></g></g><g fill="none" stroke="currentColor" stroke-linecap="butt" stroke-linejoin="miter" stroke-width="3" color="#000"><g fill="#000" stroke="none" font-family="Arial" font-size="12" text-anchor="middle"><text transform="translate(323.4,31.0)">Mobility1 test of 50 nodes. Start inside 1x1km square.</text></g><g fill="#000" stroke="none" font-family="Arial" font-size="12" text-anchor="middle"><text transform="translate(323.4,49.0)">Step duration is 10 seconds. Step width is 0-60m. 100MBit/s - 1ms latency links.</text></g></g><g id="gnuplot_plot_1"><title>v0.3.16 [%]</title><g fill="none" stroke="currentColor" stroke-linecap="butt" stroke-linejoin="miter" stroke-width="3" color="#000"><g fill="#000" stroke="none" font-family="Helvetica" font-size="18" text-anchor="end"><text transform="translate(482.1,226.2)"><tspan font-family="Helvetica">v0.3.16 [%]</tspan></text></g></g><g fill="none" stroke="currentColor" stroke-linecap="butt" stroke-linejoin="miter" stroke-width="3" color="#000"><path stroke="#C080FF" d="M494.7,220.3 L554.1,220.3 M71.9,313.8 L88.7,373.4 L105.4,313.8 L122.2,317.3 L139.0,313.8 L155.8,364.6 L172.5,364.6 L189.3,315.6 L206.1,396.1 L222.8,389.1 L239.6,305.0 L256.4,380.4 L273.1,385.6 L289.9,359.3 L306.7,333.1 L323.5,284.0 L340.2,334.8 L357.0,261.3 L373.8,259.5 L390.5,287.5 L407.3,334.8 L424.1,347.1 L440.8,350.6 L457.6,362.8 L474.4,364.6 L491.2,285.8 L507.9,343.6 L524.7,331.3 L541.5,352.3 L558.2,313.8"/><use color="#C080FF" transform="translate(71.9,313.8) scale(4.50)" xlink:href="#gpPt0"/><use color="#C080FF" transform="translate(88.7,373.4) scale(4.50)" xlink:href="#gpPt0"/><use color="#C080FF" transform="translate(105.4,313.8) scale(4.50)" xlink:href="#gpPt0"/><use color="#C080FF" transform="translate(122.2,317.3) scale(4.50)" xlink:href="#gpPt0"/><use color="#C080FF" transform="translate(139.0,313.8) scale(4.50)" xlink:href="#gpPt0"/><use color="#C080FF" transform="translate(155.8,364.6) scale(4.50)" xlink:href="#gpPt0"/><use color="#C080FF" transform="translate(172.5,364.6) scale(4.50)" xlink:href="#gpPt0"/><use color="#C080FF" transform="translate(189.3,315.6) scale(4.50)" xlink:href="#gpPt0"/><use color="#C080FF" transform="translate(206.1,396.1) scale(4.50)" xlink:href="#gpPt0"/><use color="#C080FF" transform="translate(222.8,389.1) scale(4.50)" xlink:href="#gpPt0"/><use color="#C080FF" transform="translate(239.6,305.0) scale(4.50)" xlink:href="#gpPt0"/><use color="#C080FF" transform="translate(256.4,380.4) scale(4.50)" xlink:href="#gpPt0"/><use color="#C080FF" transform="translate(273.1,385.6) scale(4.50)" xlink:href="#gpPt0"/><use color="#C080FF" transform="translate(289.9,359.3) scale(4.50)" xlink:href="#gpPt0"/><use color="#C080FF" transform="translate(306.7,333.1) scale(4.50)" xlink:href="#gpPt0"/><use color="#C080FF" transform="translate(323.5,284.0) scale(4.50)" xlink:href="#gpPt0"/><use color="#C080FF" transform="translate(340.2,334.8) scale(4.50)" xlink:href="#gpPt0"/><use color="#C080FF" transform="translate(357.0,261.3) scale(4.50)" xlink:href="#gpPt0"/><use color="#C080FF" transform="translate(373.8,259.5) scale(4.50)" xlink:href="#gpPt0"/><use color="#C080FF" transform="translate(390.5,287.5) scale(4.50)" xlink:href="#gpPt0"/><use color="#C080FF" transform="translate(407.3,334.8) scale(4.50)" xlink:href="#gpPt0"/><use color="#C080FF" transform="translate(424.1,347.1) scale(4.50)" xlink:href="#gpPt0"/><use color="#C080FF" transform="translate(440.8,350.6) scale(4.50)" xlink:href="#gpPt0"/><use color="#C080FF" transform="translate(457.6,362.8) scale(4.50)" xlink:href="#gpPt0"/><use color="#C080FF" transform="translate(474.4,364.6) scale(4.50)" xlink:href="#gpPt0"/><use color="#C080FF" transform="translate(491.2,285.8) scale(4.50)" xlink:href="#gpPt0"/><use color="#C080FF" transform="translate(507.9,343.6) scale(4.50)" xlink:href="#gpPt0"/><use color="#C080FF" transform="translate(524.7,331.3) scale(4.50)" xlink:href="#gpPt0"/><use color="#C080FF" transform="translate(541.5,352.3) scale(4.50)" xlink:href="#gpPt0"/><use color="#C080FF" transform="translate(558.2,313.8) scale(4.50)" xlink:href="#gpPt0"/><use color="#C080FF" transform="translate(524.4,220.3) scale(4.50)" xlink:href="#gpPt0"/></g></g><g id="gnuplot_plot_2"><title>v0.4rc3 [%]</title><g fill="none" stroke="currentColor" stroke-linecap="butt" stroke-linejoin="miter" stroke-width="3" color="#000"><g fill="#000" stroke="none" font-family="Helvetica" font-size="18" text-anchor="end"><text transform="translate(482.1,280.2)"><tspan font-family="Helvetica">v0.4rc3 [%]</tspan></text></g></g><g fill="none" stroke="currentColor" stroke-linecap="butt" stroke-linejoin="miter" stroke-width="3" color="#000"><path stroke="#006400" d="M494.7,274.3 L554.1,274.3 M71.9,72.1 L88.7,98.4 L105.4,145.7 L122.2,93.1 L139.0,79.1 L155.8,82.6 L172.5,112.4 L189.3,79.1 L206.1,75.6 L222.8,75.6 L239.6,91.4 L256.4,87.9 L273.1,86.1 L289.9,75.6 L306.7,79.1 L323.5,98.4 L340.2,75.6 L357.0,77.4 L373.8,89.6 L390.5,75.6 L407.3,73.9 L424.1,93.1 L440.8,73.9 L457.6,73.9 L474.4,77.4 L491.2,72.1 L507.9,96.6 L524.7,73.9 L541.5,72.1 L558.2,79.1"/><use color="#006400" transform="translate(71.9,72.1) scale(4.50)" xlink:href="#gpPt1"/><use color="#006400" transform="translate(88.7,98.4) scale(4.50)" xlink:href="#gpPt1"/><use color="#006400" transform="translate(105.4,145.7) scale(4.50)" xlink:href="#gpPt1"/><use color="#006400" transform="translate(122.2,93.1) scale(4.50)" xlink:href="#gpPt1"/><use color="#006400" transform="translate(139.0,79.1) scale(4.50)" xlink:href="#gpPt1"/><use color="#006400" transform="translate(155.8,82.6) scale(4.50)" xlink:href="#gpPt1"/><use color="#006400" transform="translate(172.5,112.4) scale(4.50)" xlink:href="#gpPt1"/><use color="#006400" transform="translate(189.3,79.1) scale(4.50)" xlink:href="#gpPt1"/><use color="#006400" transform="translate(206.1,75.6) scale(4.50)" xlink:href="#gpPt1"/><use color="#006400" transform="translate(222.8,75.6) scale(4.50)" xlink:href="#gpPt1"/><use color="#006400" transform="translate(239.6,91.4) scale(4.50)" xlink:href="#gpPt1"/><use color="#006400" transform="translate(256.4,87.9) scale(4.50)" xlink:href="#gpPt1"/><use color="#006400" transform="translate(273.1,86.1) scale(4.50)" xlink:href="#gpPt1"/><use color="#006400" transform="translate(289.9,75.6) scale(4.50)" xlink:href="#gpPt1"/><use color="#006400" transform="translate(306.7,79.1) scale(4.50)" xlink:href="#gpPt1"/><use color="#006400" transform="translate(323.5,98.4) scale(4.50)" xlink:href="#gpPt1"/><use color="#006400" transform="translate(340.2,75.6) scale(4.50)" xlink:href="#gpPt1"/><use color="#006400" transform="translate(357.0,77.4) scale(4.50)" xlink:href="#gpPt1"/><use color="#006400" transform="translate(373.8,89.6) scale(4.50)" xlink:href="#gpPt1"/><use color="#006400" transform="translate(390.5,75.6) scale(4.50)" xlink:href="#gpPt1"/><use color="#006400" transform="translate(407.3,73.9) scale(4.50)" xlink:href="#gpPt1"/><use color="#006400" transform="translate(424.1,93.1) scale(4.50)" xlink:href="#gpPt1"/><use color="#006400" transform="translate(440.8,73.9) scale(4.50)" xlink:href="#gpPt1"/><use color="#006400" transform="translate(457.6,73.9) scale(4.50)" xlink:href="#gpPt1"/><use color="#006400" transform="translate(474.4,77.4) scale(4.50)" xlink:href="#gpPt1"/><use color="#006400" transform="translate(491.2,72.1) scale(4.50)" xlink:href="#gpPt1"/><use color="#006400" transform="translate(507.9,96.6) scale(4.50)" xlink:href="#gpPt1"/><use color="#006400" transform="translate(524.7,73.9) scale(4.50)" xlink:href="#gpPt1"/><use color="#006400" transform="translate(541.5,72.1) scale(4.50)" xlink:href="#gpPt1"/><use color="#006400" transform="translate(558.2,79.1) scale(4.50)" xlink:href="#gpPt1"/><use color="#006400" transform="translate(524.4,274.3) scale(4.50)" xlink:href="#gpPt1"/></g></g><g fill="none" stroke="currentColor" stroke-linecap="butt" stroke-linejoin="miter" stroke-width="3" color="#000"><path stroke="#000" d="M71.9,72.1 L71.9,422.4 L575.0,422.4 L575.0,72.1 L71.9,72.1 Z"/></g></g></svg>